<svg width="100" height="100" viewBox="0 0 100 100" fill="none" xmlns="http://www.w3.org/2000/svg">
<g clip-path="url(#clip0_1_101)">
<path d="M91.2366 43.1604C90.8351 42.0851 89.8066 41.3701 88.6571 41.3701H55.4508L74.6046 4.12962C75.2068 2.95812 74.8961 1.52537 73.8593 0.711367C73.3588 0.315367 72.7566 0.120117 72.1571 0.120117C71.5163 0.120117 70.8756 0.345617 70.3613 0.788367L50.1571 18.2371L9.86133 53.0384C8.99233 53.7891 8.67883 55.0019 9.08033 56.0771C9.48183 57.1524 10.5076 57.8701 11.6571 57.8701H44.8633L25.7096 95.1106C25.1073 96.2821 25.4181 97.7149 26.4548 98.5289C26.9553 98.9249 27.5576 99.1201 28.1571 99.1201C28.7978 99.1201 29.4386 98.8946 29.9528 98.4519L50.1571 81.0031L90.4528 46.2019C91.3246 45.4511 91.6353 44.2384 91.2366 43.1604Z" fill="#FFAC33"/>
</g>
<defs>
<clipPath id="clip0_1_101">
<rect width="99" height="99" fill="white" transform="translate(0.657104 0.120117)"/>
</clipPath>
</defs>
</svg>
