<svg width="1161" height="433" viewBox="0 0 1161 433" fill="none" xmlns="http://www.w3.org/2000/svg">
<rect width="1161" height="433" rx="36" fill="#E2E8F0"/>
<mask id="mask0_1_205" style="mask-type:alpha" maskUnits="userSpaceOnUse" x="0" y="0" width="1161" height="433">
<rect width="1161" height="433" rx="36" fill="#E2E8F0"/>
</mask>
<g mask="url(#mask0_1_205)">
<path d="M1200.78 460.423C1200.78 566.787 1113.34 653.086 1005.39 653.086C897.434 653.086 809.996 566.787 809.996 460.423C809.996 354.06 897.434 267.761 1005.39 267.761C1113.34 267.761 1200.78 354.06 1200.78 460.423Z" stroke="#CBD5E1" stroke-width="6.3"/>
<path opacity="0.8" d="M1396.88 381.521C1396.88 485.7 1309.5 570.334 1201.49 570.334C1093.48 570.334 1006.1 485.7 1006.1 381.521C1006.1 277.341 1093.48 192.708 1201.49 192.708C1309.5 192.708 1396.88 277.341 1396.88 381.521Z" stroke="#475569" stroke-width="6.3"/>
</g>
</svg>
