<svg width="36" height="39" viewBox="0 0 36 39" fill="none" xmlns="http://www.w3.org/2000/svg">
<path d="M27.0078 19.242C26.9956 21.7949 26.0355 24.2384 24.3383 26.0364C22.6411 27.8345 20.3453 28.8401 17.9546 28.8328C12.9985 28.8153 8.97326 24.4602 8.99201 19.1452C9.01466 13.8736 13.0976 9.5652 18.0428 9.59439C22.988 9.62358 27.0265 13.9678 27.0078 19.242ZM17.9725 25.6136H19.4166C19.8977 25.6136 20.3795 25.6136 20.8606 25.6136C22.0563 25.6069 22.7998 24.8038 22.799 23.5236C22.799 21.7311 22.799 19.9392 22.799 18.1478C22.799 16.9802 22.3187 16.313 21.2464 16.0419C21.0535 15.9936 20.9887 15.916 20.9942 15.715C21.0028 15.3539 21.0067 14.992 20.9942 14.6308C20.9239 12.9228 19.7204 11.6285 18.1248 11.5359C16.6175 11.4483 15.3055 12.6042 15.0454 14.2422C14.9673 14.7117 15.0126 15.1846 15.0079 15.6558C15.0079 15.8743 14.9712 15.9944 14.7315 16.0511C13.6998 16.2946 13.2085 16.9527 13.2031 18.0885C13.1937 19.9083 13.1937 21.7281 13.2031 23.5478C13.2101 24.838 13.9505 25.6078 15.1649 25.6128C16.0997 25.617 17.0361 25.6136 17.9725 25.6136Z" fill="#2DA5F3"/>
<path d="M9.93474 36.5191C9.06316 36.5191 8.19237 36.5191 7.32079 36.5191C7.23829 36.5151 7.156 36.5311 7.08012 36.5659C7.00423 36.6007 6.93672 36.6534 6.88266 36.7201C6.37267 37.2956 5.64167 37.3131 5.15278 36.7835C5.03724 36.6654 4.94545 36.5235 4.883 36.3662C4.82055 36.209 4.78876 36.0399 4.78957 35.8691C4.79037 35.6984 4.82375 35.5296 4.88768 35.373C4.9516 35.2165 5.04472 35.0755 5.16136 34.9587C5.65104 34.4467 6.38126 34.4758 6.89515 35.0421C6.93957 35.1001 6.99562 35.1467 7.05915 35.1784C7.12268 35.2102 7.19207 35.2263 7.26221 35.2256C8.93977 35.2256 10.6171 35.2275 12.2941 35.2314C12.5089 35.2314 12.5917 35.1656 12.5901 34.9245C12.5807 33.827 12.5776 32.7303 12.5901 31.6328C12.594 31.3826 12.469 31.2992 12.2988 31.2083C10.8684 30.4336 9.58946 29.3747 8.53053 28.0883C8.21814 27.7072 8.1869 27.3377 8.45868 27.0634C8.73046 26.789 9.09675 26.8365 9.40914 27.2152C10.4752 28.5153 11.7872 29.5593 13.2586 30.2784C13.6561 30.4744 13.8162 30.7596 13.81 31.2208C13.7928 32.4985 13.8037 33.7761 13.7991 35.0571C13.7944 36.0304 13.3305 36.5216 12.4316 36.5199H9.9324L9.93474 36.5191Z" fill="#2DA5F3"/>
<path d="M32.6973 19.8585C31.8515 19.8585 31.0057 19.8585 30.1599 19.8585C29.6132 19.8585 29.3929 19.6383 29.3882 19.0587C29.3734 17.0341 28.8791 15.0464 27.9512 13.2808C27.6107 12.6195 27.8731 12.1674 28.5901 12.1666C29.7873 12.1666 30.9846 12.1666 32.1826 12.1716C32.2897 12.181 32.3974 12.1633 32.4969 12.1198C32.5964 12.0763 32.6849 12.0083 32.7551 11.9214C33.2073 11.3927 34.0046 11.4085 34.4685 11.9214C34.5814 12.0416 34.6706 12.1847 34.7309 12.3422C34.7912 12.4998 34.8213 12.6686 34.8195 12.8388C34.8177 13.009 34.784 13.1771 34.7204 13.3332C34.6568 13.4892 34.5646 13.6301 34.4493 13.7476C34.3339 13.865 34.1977 13.9565 34.0486 14.0169C33.8996 14.0772 33.7407 14.105 33.5815 14.0987C33.4222 14.0925 33.2657 14.0522 33.1212 13.9804C32.9767 13.9085 32.8472 13.8065 32.7402 13.6803C32.6754 13.5968 32.5926 13.5312 32.4989 13.4893C32.4052 13.4473 32.3034 13.4301 32.2021 13.4393C31.3821 13.4493 30.5621 13.4526 29.742 13.4393C29.4781 13.4393 29.3851 13.4768 29.5148 13.7829C30.1098 15.1764 30.4613 16.6744 30.5519 18.203C30.5706 18.5207 30.6917 18.5833 30.9643 18.5808C32.4091 18.5683 33.8539 18.5808 35.2979 18.575C35.5814 18.575 35.8056 18.6584 35.9384 18.9477C36.0477 19.1904 36.0032 19.4064 35.8657 19.6149C35.7283 19.8234 35.5049 19.8651 35.2753 19.861C34.4162 19.861 33.5571 19.861 32.6981 19.861L32.6973 19.8585Z" fill="#2DA5F3"/>
<path d="M26.0445 1.90916C26.9036 1.90916 27.7626 1.90916 28.6217 1.90916C28.7169 1.91757 28.8126 1.90237 28.9013 1.86476C28.99 1.82714 29.0694 1.76813 29.1333 1.69232C29.637 1.11937 30.3704 1.11854 30.8639 1.6573C30.974 1.77599 31.0611 1.91671 31.1201 2.0714C31.1792 2.2261 31.209 2.39171 31.208 2.55876C31.207 2.72581 31.1751 2.89099 31.1142 3.04485C31.0533 3.19872 30.9645 3.33822 30.853 3.45537C30.3641 3.97578 29.6222 3.95577 29.1177 3.39449C29.0631 3.32794 28.9951 3.27549 28.9188 3.24111C28.8425 3.20672 28.7599 3.1913 28.6772 3.196C27.0371 3.196 25.397 3.20268 23.757 3.196C23.4852 3.196 23.4016 3.2794 23.4055 3.57463C23.4206 4.63102 23.4206 5.6874 23.4055 6.74379C23.4055 7.01316 23.5078 7.12742 23.7179 7.23918C24.8948 7.86962 25.9701 8.69616 26.9036 9.68776C27.2378 10.0405 27.2714 10.4283 27.0035 10.7102C26.9497 10.7721 26.8843 10.8212 26.8116 10.8545C26.7389 10.8879 26.6606 10.9046 26.5815 10.9038C26.5024 10.9029 26.4243 10.8844 26.3523 10.8495C26.2803 10.8146 26.2159 10.7641 26.1632 10.7011C25.1203 9.5897 23.8979 8.6887 22.555 8.04147C22.2997 7.91637 22.2005 7.68119 22.2005 7.39763C22.2005 5.97985 22.1888 4.56207 22.2083 3.1443C22.2184 2.41956 22.7347 1.91667 23.4321 1.90833C24.3037 1.89832 25.1752 1.90833 26.0468 1.90833L26.0445 1.90916Z" fill="#2DA5F3"/>
<path d="M26.0106 36.5196C25.1775 36.5196 24.3445 36.5196 23.5114 36.5196C22.7047 36.5196 22.208 36.0142 22.2009 35.1619C22.1892 33.8275 22.2009 32.4931 22.1916 31.1587C22.1916 30.7543 22.3267 30.4832 22.6867 30.3081C23.9455 29.6974 25.0912 28.8499 26.0691 27.8061C26.3901 27.465 26.7377 27.4408 26.997 27.7152C27.2562 27.9896 27.2313 28.3874 26.8954 28.7377C25.9622 29.7282 24.8878 30.5544 23.7121 31.1854C23.5005 31.298 23.3997 31.4148 23.406 31.6858C23.4211 32.7422 23.4211 33.7986 23.406 34.855C23.406 35.1494 23.4903 35.2328 23.759 35.2311C25.3991 35.2203 27.0391 35.2244 28.6745 35.2269C28.7573 35.2312 28.8399 35.2153 28.916 35.1805C28.9922 35.1457 29.06 35.0928 29.1142 35.0259C29.6156 34.4622 30.3638 34.4421 30.8488 34.9659C30.9631 35.0852 31.0536 35.2279 31.115 35.3855C31.1764 35.543 31.2073 35.7122 31.2059 35.8829C31.2045 36.0536 31.1708 36.2222 31.1069 36.3786C31.043 36.535 30.9502 36.676 30.8339 36.7932C30.3443 37.3027 29.6218 37.2935 29.1322 36.7323C29.0687 36.656 28.9896 36.5965 28.901 36.5584C28.8123 36.5203 28.7166 36.5048 28.6214 36.5129C27.7506 36.5179 26.879 36.5129 26.0082 36.5129L26.0106 36.5196Z" fill="#2DA5F3"/>
<path d="M9.78203 3.20412C8.97606 3.20412 8.17008 3.20412 7.36098 3.20412C7.26564 3.19791 7.17023 3.21513 7.08209 3.25445C6.99395 3.29378 6.91543 3.35416 6.85256 3.43096C6.74466 3.55388 6.61498 3.65269 6.47104 3.72167C6.3271 3.79066 6.17177 3.82843 6.01405 3.83281C5.85633 3.83719 5.69937 3.80809 5.55227 3.74719C5.40517 3.68629 5.27085 3.5948 5.15712 3.47804C5.04338 3.36128 4.95249 3.22156 4.88971 3.06699C4.82693 2.91243 4.79351 2.74609 4.7914 2.57763C4.78928 2.40916 4.81851 2.24193 4.87739 2.08562C4.93627 1.92932 5.02363 1.78705 5.1344 1.66708C5.61158 1.14083 6.35195 1.12415 6.83616 1.66708C6.90814 1.75277 6.99745 1.81984 7.09731 1.86319C7.19718 1.90654 7.30497 1.92504 7.41253 1.91727C9.0893 1.91227 10.7669 1.91727 12.4444 1.91727C13.3222 1.91727 13.7916 2.41266 13.7963 3.35507C13.8002 4.25744 13.8127 5.16065 13.7963 6.06219C13.79 6.40663 13.8291 6.5409 14.1923 6.39996C14.5988 6.25373 15.0139 6.13588 15.4348 6.04718C15.7823 5.96378 16.0861 6.16143 16.1666 6.49003C16.2564 6.85448 16.0885 7.17723 15.7128 7.27731C14.9443 7.48314 14.188 7.73797 13.448 8.04041C12.9692 8.23389 12.6045 7.94784 12.5889 7.36738C12.5717 6.50671 12.5826 5.64603 12.5819 4.78202C12.5819 4.36503 12.5686 3.94803 12.5819 3.53104C12.592 3.27417 12.5038 3.19744 12.2695 3.19744C11.4377 3.20912 10.606 3.20245 9.77032 3.20245L9.78203 3.20412Z" fill="#2DA5F3"/>
<path d="M5.62559 13.4354C5.00081 13.4354 4.37602 13.4404 3.75123 13.4354C3.66259 13.429 3.57381 13.4454 3.49229 13.4831C3.41077 13.5208 3.33889 13.5788 3.28264 13.6523C3.12224 13.8458 2.91058 13.9828 2.67567 14.0451C2.44076 14.1074 2.19368 14.092 1.96713 14.001C1.74058 13.91 1.54525 13.7477 1.40699 13.5355C1.26874 13.3234 1.19407 13.0714 1.19289 12.8129C1.1917 12.5545 1.26404 12.3017 1.40035 12.0881C1.53665 11.8745 1.73048 11.7102 1.95618 11.6168C2.18188 11.5235 2.42881 11.5055 2.66428 11.5653C2.89975 11.6251 3.11267 11.7599 3.27483 11.9517C3.3249 12.0217 3.38963 12.0781 3.46382 12.1165C3.53801 12.1549 3.6196 12.1742 3.70203 12.1728C4.80713 12.1644 5.913 12.1627 7.01809 12.1728C7.23755 12.1728 7.33595 12.0677 7.44295 11.8917C8.21097 10.6155 9.17801 9.48917 10.3021 8.56159C10.531 8.37311 10.7653 8.24718 11.055 8.39479C11.4853 8.60913 11.5236 9.16373 11.1058 9.51651C10.4172 10.0875 9.78704 10.7346 9.22593 11.4472C8.856 11.913 8.5254 12.4128 8.23799 12.9409C8.05289 13.2911 7.80688 13.4596 7.41795 13.4413C6.8205 13.4171 6.22149 13.4346 5.62169 13.4346L5.62559 13.4354Z" fill="#2DA5F3"/>
<path d="M5.58261 26.261C4.9711 26.261 4.35881 26.2652 3.7473 26.261C3.65902 26.2545 3.57054 26.2703 3.4891 26.3073C3.40765 26.3443 3.33556 26.4013 3.27871 26.4737C3.11761 26.6665 2.90547 26.8025 2.67039 26.8636C2.43531 26.9248 2.18837 26.9083 1.96229 26.8162C1.73621 26.7241 1.54165 26.5609 1.40438 26.3481C1.26711 26.1354 1.1936 25.8831 1.1936 25.6247C1.1936 25.3663 1.26711 25.114 1.40438 24.9013C1.54165 24.6885 1.73621 24.5253 1.96229 24.4332C2.18837 24.3412 2.43531 24.3246 2.67039 24.3858C2.90547 24.4469 3.11761 24.5829 3.27871 24.7757C3.40288 24.9208 3.51847 25.0001 3.70669 24.9976C4.56577 24.9884 5.42485 24.9834 6.28394 24.9976C6.57368 24.9976 6.57915 24.895 6.47528 24.6565C6.112 23.8095 5.84407 22.9195 5.67711 22.0052C5.59511 21.5674 5.76458 21.2454 6.11056 21.1712C6.47059 21.0928 6.74159 21.288 6.83765 21.7333C7.09713 22.9519 7.51594 24.1255 8.08176 25.2194C8.37775 25.789 8.10753 26.2519 7.49758 26.261C6.8603 26.2694 6.22224 26.261 5.58495 26.261H5.58261Z" fill="#2DA5F3"/>
<path d="M30.4181 26.2613C29.7933 26.2613 29.1685 26.2663 28.5437 26.2613C27.883 26.2546 27.6206 25.7976 27.94 25.1771C28.4922 24.1038 28.9 22.9527 29.1513 21.7578C29.2528 21.2841 29.5215 21.0772 29.8925 21.1606C30.2478 21.2399 30.404 21.5634 30.3142 22.0396C30.1485 22.9404 29.8827 23.8167 29.5223 24.65C29.4137 24.9002 29.4293 24.9911 29.7144 24.9836C30.5735 24.9719 31.4326 24.9786 32.2916 24.9836C32.3679 24.9876 32.444 24.9725 32.5137 24.9393C32.5834 24.9061 32.6449 24.8559 32.6931 24.7926C33.196 24.2088 33.9645 24.1763 34.4573 24.7092C34.5706 24.8296 34.6601 24.9731 34.7204 25.1312C34.7808 25.2892 34.8108 25.4586 34.8087 25.6292C34.8066 25.7999 34.7724 25.9684 34.7081 26.1247C34.6439 26.2809 34.5509 26.4218 34.4347 26.539C33.9458 27.0394 33.1906 27.0052 32.697 26.4306C32.6465 26.3707 32.5837 26.3242 32.5134 26.2949C32.4432 26.2655 32.3675 26.254 32.2924 26.2613C31.6676 26.2663 31.0428 26.2613 30.4181 26.2613Z" fill="#2DA5F3"/>
<path d="M17.399 35.3205C17.399 34.5566 17.3849 33.7918 17.406 33.0279C17.4154 32.7127 17.3123 32.6109 17.0312 32.6109C16.5477 32.6159 16.0737 32.5142 15.5996 32.4258C15.174 32.3465 14.9405 32.0388 15.0029 31.6585C15.0654 31.2782 15.3403 31.0864 15.7706 31.1648C17.2223 31.4365 18.7069 31.4402 20.1598 31.1756C20.6284 31.0922 20.9041 31.2749 20.9658 31.6652C21.029 32.0688 20.801 32.344 20.3316 32.4366C19.8833 32.5242 19.4342 32.6159 18.9774 32.6092C18.665 32.6042 18.5923 32.7469 18.5955 33.0613C18.6087 34.59 18.5955 36.1187 18.6025 37.6482C18.6025 37.9634 18.5408 38.2253 18.2471 38.3704C17.8301 38.5764 17.4115 38.2754 17.4037 37.7399C17.3927 36.9343 17.4037 36.1287 17.4037 35.3214L17.399 35.3205Z" fill="#2DA5F3"/>
<path d="M3.29744 19.8556C2.45242 19.8556 1.60739 19.8556 0.762366 19.8556C0.289089 19.8556 0.0079355 19.6204 0.000125657 19.2251C-0.0069032 18.8156 0.28128 18.5746 0.78111 18.5746C2.21187 18.5746 3.64185 18.5637 5.07184 18.5746C5.34362 18.5746 5.43578 18.4862 5.44671 18.2051C5.4842 17.2285 5.68101 16.2811 5.93014 15.3445C5.95539 15.2367 5.98589 15.1304 6.02151 15.0259C6.1535 14.6723 6.45418 14.5005 6.76579 14.5923C6.84288 14.6115 6.91531 14.6479 6.97836 14.699C7.04142 14.7501 7.09369 14.8148 7.13178 14.8889C7.16987 14.963 7.19292 15.0449 7.19943 15.1291C7.20594 15.2133 7.19576 15.2981 7.16956 15.3779C6.80569 16.626 6.61313 17.9238 6.59788 19.2309C6.58851 19.6529 6.33781 19.8514 5.91218 19.8547C5.03982 19.8606 4.16902 19.8564 3.29744 19.8556Z" fill="#2DA5F3"/>
<path d="M18.6047 3.07669C18.6047 3.82728 18.6297 4.57787 18.5946 5.32845C18.5758 5.7296 18.7156 5.83302 19.053 5.82885C19.5099 5.82051 19.9574 5.92225 20.4049 6.00982C20.8149 6.09322 21.0367 6.38262 20.9844 6.75124C20.9321 7.11986 20.658 7.33503 20.23 7.26748C19.5112 7.1473 18.7861 7.07488 18.0588 7.05064C17.6043 7.0398 17.402 6.79377 17.4005 6.30756C17.3968 4.44777 17.3968 2.58797 17.4005 0.728181C17.4005 0.28867 17.6387 0.00678236 17.9901 0.000110464C18.3416 -0.00656143 18.5977 0.289504 18.6008 0.750699C18.6047 1.52798 18.6008 2.30525 18.6008 3.08586L18.6047 3.07669Z" fill="#2DA5F3"/>
<path d="M18 24.3427C17.0511 24.3427 16.1022 24.3427 15.1533 24.3427C14.6066 24.3427 14.4067 24.125 14.4059 23.5312C14.4028 21.712 14.4028 19.8936 14.4059 18.0761C14.4059 17.519 14.6152 17.2855 15.1408 17.2838C17.0511 17.2771 18.9619 17.2771 20.8732 17.2838C21.3942 17.2838 21.6027 17.5215 21.6035 18.0811C21.6035 19.8992 21.6035 21.7176 21.6035 23.5362C21.6035 24.1242 21.3996 24.3402 20.8498 24.3427C19.8947 24.3469 18.9458 24.3427 18 24.3427ZM19.7963 20.5622C19.7963 19.584 19.1519 18.7475 18.335 18.6023C17.433 18.4431 16.6255 18.9359 16.3154 19.8341C16.1658 20.2606 16.1652 20.7303 16.3138 21.1572C16.4625 21.584 16.7503 21.9392 17.1245 22.1576C17.2059 22.1953 17.2771 22.2541 17.3316 22.3286C17.3862 22.4032 17.4224 22.4913 17.4369 22.5846C17.4939 22.8949 17.7173 23.0425 18.0109 23.0375C18.2866 23.0325 18.5139 22.8899 18.5576 22.6013C18.5982 22.3369 18.7443 22.2427 18.9278 22.1243C19.4948 21.7573 19.7603 21.1969 19.7963 20.5622Z" fill="#2DA5F3"/>
<path d="M17.9903 16.0111C17.4967 16.0111 17.0039 16.002 16.5103 16.0111C16.2854 16.0178 16.1729 15.9586 16.1893 15.6901C16.2136 15.2731 16.18 14.8561 16.2307 14.4458C16.351 13.4758 17.0953 12.8103 18.0083 12.8145C18.9212 12.8186 19.6585 13.49 19.7702 14.4641C19.817 14.8744 19.792 15.2939 19.8116 15.7084C19.8225 15.9503 19.721 16.0161 19.5093 16.0111C19.0032 16.0036 18.4964 16.0111 17.9903 16.0111Z" fill="#2DA5F3"/>
<path d="M18.5963 20.5179C18.5934 20.6013 18.5751 20.6833 18.5426 20.7592C18.51 20.835 18.4637 20.9033 18.4064 20.96C18.3491 21.0168 18.2819 21.061 18.2087 21.09C18.1354 21.119 18.0575 21.1324 17.9794 21.1292C17.9011 21.1273 17.8239 21.1087 17.7524 21.0746C17.681 21.0405 17.6166 20.9914 17.563 20.9304C17.5095 20.8693 17.4679 20.7975 17.4407 20.7191C17.4135 20.6407 17.4012 20.5573 17.4046 20.4737C17.4117 20.3055 17.4802 20.1468 17.5956 20.0319C17.7109 19.917 17.8638 19.855 18.0215 19.8591C18.0998 19.862 18.1768 19.8813 18.248 19.916C18.3193 19.9507 18.3834 20.0001 18.4368 20.0613C18.4902 20.1225 18.5318 20.1943 18.5592 20.2726C18.5865 20.351 18.5992 20.4343 18.5963 20.5179Z" fill="#2DA5F3"/>
</svg>
