<svg width="81" height="81" viewBox="0 0 81 81" fill="none" xmlns="http://www.w3.org/2000/svg">
<g filter="url(#filter0_d_1_226)">
<rect x="9.75159" y="6.75195" width="60.8153" height="60.8153" rx="13.0318" fill="#2DA5F3"/>
</g>
<path d="M44.6767 32.3332V28.8332C44.6767 27.5499 45.7267 26.4999 47.01 26.4999M40.01 38.1665H44.6767M40.01 28.2499C40.0143 27.52 39.7448 26.815 39.2547 26.2741C38.7646 25.7332 38.0895 25.3958 37.3627 25.3284C36.6359 25.261 35.9103 25.4685 35.3291 25.9101C34.7479 26.3516 34.3533 26.995 34.2233 27.7132C33.8387 27.7853 33.4726 27.934 33.1467 28.1505C32.8207 28.367 32.5417 28.6468 32.3262 28.9734C32.1106 29.2999 31.963 29.6665 31.8921 30.0513C31.8212 30.4361 31.8284 30.8313 31.9133 31.2132C31.3868 31.3067 30.8961 31.5431 30.4948 31.8967C30.0936 32.2503 29.7973 32.7074 29.6383 33.218C29.4793 33.7286 29.4638 34.2731 29.5935 34.792C29.7231 35.3108 29.9929 35.784 30.3733 36.1599C29.7335 36.4553 29.1977 36.937 28.8361 37.542C28.4745 38.1469 28.304 38.847 28.3469 39.5504C28.3897 40.2539 28.644 40.9281 29.0763 41.4847C29.5087 42.0412 30.099 42.4543 30.77 42.6699C30.6419 43.1539 30.6405 43.6627 30.766 44.1474C30.8915 44.6321 31.1397 45.0763 31.4866 45.4373C31.8335 45.7982 32.2675 46.0639 32.7468 46.2085C33.2262 46.3532 33.7346 46.372 34.2233 46.2632C34.3444 46.9304 34.6942 47.5345 35.2126 47.9717C35.7309 48.409 36.3853 48.6519 37.0634 48.6588C37.7415 48.6657 38.4007 48.4361 38.9279 48.0096C39.455 47.583 39.817 46.9861 39.9517 46.3215L40.01 46.3332V28.2499Z" stroke="white" stroke-width="2.33333" stroke-linecap="round" stroke-linejoin="round"/>
<path d="M40.01 44H47.01C47.6288 44 48.2223 44.2458 48.6599 44.6834C49.0975 45.121 49.3433 45.7145 49.3433 46.3333V47.5M40.01 32.3333H49.3433M49.9267 32.3333C49.9267 32.488 49.8652 32.6364 49.7558 32.7458C49.6464 32.8552 49.4981 32.9167 49.3433 32.9167C49.1886 32.9167 49.0403 32.8552 48.9309 32.7458C48.8215 32.6364 48.76 32.488 48.76 32.3333C48.76 32.1786 48.8215 32.0303 48.9309 31.9209C49.0403 31.8115 49.1886 31.75 49.3433 31.75C49.4981 31.75 49.6464 31.8115 49.7558 31.9209C49.8652 32.0303 49.9267 32.1786 49.9267 32.3333ZM45.26 38.1667C45.26 38.3214 45.1986 38.4697 45.0892 38.5791C44.9798 38.6885 44.8314 38.75 44.6767 38.75C44.522 38.75 44.3736 38.6885 44.2642 38.5791C44.1548 38.4697 44.0933 38.3214 44.0933 38.1667C44.0933 38.012 44.1548 37.8636 44.2642 37.7542C44.3736 37.6448 44.522 37.5833 44.6767 37.5833C44.8314 37.5833 44.9798 37.6448 45.0892 37.7542C45.1986 37.8636 45.26 38.012 45.26 38.1667Z" stroke="white" stroke-width="2.33333" stroke-linecap="round" stroke-linejoin="round"/>
<path d="M49.9267 47.4998C49.9267 47.6545 49.8652 47.8029 49.7558 47.9123C49.6464 48.0217 49.498 48.0832 49.3433 48.0832C49.1886 48.0832 49.0402 48.0217 48.9309 47.9123C48.8215 47.8029 48.76 47.6545 48.76 47.4998C48.76 47.3451 48.8215 47.1968 48.9309 47.0874C49.0402 46.978 49.1886 46.9165 49.3433 46.9165C49.498 46.9165 49.6464 46.978 49.7558 47.0874C49.8652 47.1968 49.9267 47.3451 49.9267 47.4998ZM47.5933 26.4998C47.5933 26.6545 47.5319 26.8029 47.4225 26.9123C47.3131 27.0217 47.1647 27.0832 47.01 27.0832C46.8553 27.0832 46.7069 27.0217 46.5975 26.9123C46.4881 26.8029 46.4267 26.6545 46.4267 26.4998C46.4267 26.3451 46.4881 26.1968 46.5975 26.0874C46.7069 25.978 46.8553 25.9165 47.01 25.9165C47.1647 25.9165 47.3131 25.978 47.4225 26.0874C47.5319 26.1968 47.5933 26.3451 47.5933 26.4998Z" stroke="white" stroke-width="2.33333" stroke-linecap="round" stroke-linejoin="round"/>
<defs>
<filter id="filter0_d_1_226" x="0.194899" y="0.670424" width="79.9287" height="79.9286" filterUnits="userSpaceOnUse" color-interpolation-filters="sRGB">
<feFlood flood-opacity="0" result="BackgroundImageFix"/>
<feColorMatrix in="SourceAlpha" type="matrix" values="0 0 0 0 0 0 0 0 0 0 0 0 0 0 0 0 0 0 127 0" result="hardAlpha"/>
<feOffset dy="3.47516"/>
<feGaussianBlur stdDeviation="4.77834"/>
<feColorMatrix type="matrix" values="0 0 0 0 0 0 0 0 0 0 0 0 0 0 0 0 0 0 0.06 0"/>
<feBlend mode="normal" in2="BackgroundImageFix" result="effect1_dropShadow_1_226"/>
<feBlend mode="normal" in="SourceGraphic" in2="effect1_dropShadow_1_226" result="shape"/>
</filter>
</defs>
</svg>
