<svg width="42" height="45" viewBox="0 0 42 45" fill="none" xmlns="http://www.w3.org/2000/svg">
<path d="M27.383 33.491C26.5579 33.5478 26.0097 32.9988 25.4729 32.4013C25.2283 32.1279 25.0367 31.7572 24.534 32.0124C24.0674 32.2454 24.1149 32.6201 24.1092 33.0252C24.0693 35.2694 23.4795 35.8831 21.3665 35.8852C20.6704 35.8852 19.9743 35.9074 19.28 35.873C18.0642 35.8163 17.3055 34.9818 17.2543 33.6814C17.2391 33.3108 17.2847 32.934 17.2353 32.5695C17.2203 32.4399 17.1716 32.3175 17.0949 32.2159C17.0182 32.1143 16.9164 32.0376 16.8011 31.9944C16.6858 31.9513 16.5614 31.9434 16.4421 31.9716C16.3228 31.9998 16.2132 32.0631 16.1257 32.1542C15.9095 32.3568 15.7255 32.5877 15.5188 32.7943C14.5704 33.7483 13.4324 33.7787 12.4707 32.8348C11.822 32.1947 11.1942 31.5243 10.5948 30.8316C9.70334 29.8026 9.73179 28.6279 10.6384 27.5908C10.8091 27.3883 10.9893 27.2019 11.1695 27.0136C11.3839 26.7847 11.4996 26.5558 11.3592 26.2034C11.2113 25.8145 10.9609 25.7335 10.6138 25.7517C10.298 25.775 9.98116 25.775 9.66541 25.7517C9.15513 25.7257 8.6737 25.4913 8.32067 25.097C7.96765 24.7027 7.77003 24.1786 7.76866 23.633C7.73831 22.6547 7.7459 21.6764 7.76866 20.6981C7.79332 19.3167 8.52736 18.5106 9.80198 18.4195C10.0861 18.3992 10.371 18.3952 10.6555 18.4073C10.8115 18.4297 10.9699 18.3923 11.1025 18.3018C11.2352 18.2114 11.3335 18.0736 11.3801 17.9131C11.5128 17.5607 11.3971 17.3439 11.1638 17.1272C10.9969 16.9712 10.8433 16.8011 10.6916 16.631C9.70524 15.5291 9.69007 14.3179 10.665 13.2383C11.234 12.6084 11.8163 11.9865 12.41 11.3809C13.4229 10.352 14.4851 10.35 15.5112 11.3566C15.7217 11.5592 15.9266 11.7617 16.1201 11.9946C16.1989 12.1002 16.3105 12.1721 16.4347 12.1974C16.559 12.2226 16.6875 12.1996 16.7972 12.1324C16.9327 12.0854 17.0507 11.9935 17.1339 11.87C17.2171 11.7465 17.2613 11.5979 17.26 11.4457C17.5749 8.39131 17.7456 8.23738 20.6191 8.23535H21.5675C23.3903 8.24548 24.0807 8.98275 24.1168 10.907C24.1168 11.3364 23.9271 11.8387 24.5284 12.106C25.1296 12.3734 25.3231 11.8448 25.6114 11.5571C26.9391 10.2345 27.9027 10.2365 29.1963 11.6118C29.6667 12.1121 30.1446 12.6104 30.6018 13.1188C31.6829 14.3077 31.6867 15.4683 30.6226 16.6512C30.5126 16.7727 30.4064 16.8983 30.2907 17.0118C30.027 17.2649 29.7956 17.4918 29.9948 17.9495C30.1939 18.4073 30.505 18.3769 30.8559 18.381C31.1725 18.3751 31.4891 18.3887 31.8043 18.4215C32.8323 18.5511 33.5436 19.3269 33.5834 20.4287C33.6214 21.4739 33.6157 22.5211 33.5834 23.5662C33.5569 24.8139 32.7754 25.6484 31.6374 25.7375C31.3851 25.7578 31.1309 25.7476 30.8787 25.7476C30.5373 25.7476 30.2053 25.6889 30.01 26.1527C29.8146 26.6166 30.0441 26.8414 30.2945 27.1088C30.5243 27.3396 30.7416 27.5844 30.9451 27.842C31.5558 28.6623 31.6184 29.754 30.9792 30.544C30.2584 31.4352 29.4447 32.2413 28.6462 33.0556C28.4753 33.2175 28.2748 33.3398 28.0573 33.4147C27.8399 33.4897 27.6103 33.5157 27.383 33.491ZM22.1479 32.0529C21.9014 31.0746 22.4154 30.702 23.3694 30.1308C25.0158 29.1444 26.0249 29.5231 26.9998 30.9916C27.2274 31.3359 27.455 31.3076 27.7737 31.022C29.6022 29.3813 29.6098 29.4016 27.9349 27.6415C27.87 27.5694 27.801 27.5018 27.7282 27.4389C27.3811 27.1655 27.3621 26.8718 27.6182 26.5011C27.8013 26.2658 27.9311 25.9885 27.9975 25.6909C28.2612 23.8234 29.3063 23.2604 30.9394 23.5885C31.4875 23.6979 31.6753 23.3859 31.6317 22.8289C31.6108 22.5616 31.6317 22.2901 31.6317 22.0187C31.6165 20.2424 31.772 20.453 30.2243 20.5381C29.1413 20.5969 28.4167 20.4206 28.2631 19.1081C28.1979 18.7069 28.0408 18.3291 27.8059 18.0083C27.3659 17.3784 27.438 16.9571 27.9956 16.4061C29.4675 14.9397 29.4144 14.9316 28.0525 13.4003C27.5518 12.8352 27.1933 12.7279 26.7495 13.4003C25.9206 14.648 24.9627 15.1686 23.6729 14.0566C23.4324 13.892 23.1573 13.7939 22.8725 13.771C22.2504 13.6657 22.1138 13.3031 22.129 12.657C22.1745 10.2912 22.1498 10.3175 19.9439 10.3601C19.335 10.3722 19.115 10.6234 19.2193 11.1946C19.5247 12.8717 18.9955 13.7771 17.3586 14.2429C15.9323 14.648 15.9835 14.8506 14.8929 13.692C13.9729 12.7096 13.9729 12.7096 13.0644 13.692C11.9263 14.9073 11.8941 14.9539 13.089 16.1226C13.7871 16.8031 14.1133 17.3743 13.4324 18.2878C13.1588 18.7033 12.982 19.1824 12.9164 19.6854C12.7969 20.4085 12.4479 20.5503 11.8125 20.5401C9.54781 20.5077 9.56299 20.5401 9.71283 22.9302C9.74697 23.4609 9.93475 23.706 10.4013 23.5986C12.1255 23.2077 12.9183 23.9834 13.4362 25.7618C13.7434 26.811 13.8496 27.3599 13.0246 28.1012C11.8448 29.1585 11.8979 29.2274 12.9866 30.3941C13.9597 31.4372 14.0241 31.498 14.9479 30.3414C15.6667 29.4421 16.2092 29.4279 17.2847 29.8188C18.9272 30.4143 19.519 31.3177 19.2156 33.0596C19.1245 33.5802 19.3919 33.7949 19.8756 33.7544C20.1582 33.7321 20.4446 33.7544 20.7273 33.7544C22.2769 33.7118 22.1422 33.9731 22.1536 32.0529H22.1479Z" fill="#2DA5F3"/>
<path d="M15.6477 2.40803C15.4223 2.20844 15.2082 1.99471 15.0066 1.76798C14.8405 1.58218 14.7468 1.33592 14.7443 1.07908C14.7418 0.822227 14.8308 0.573976 14.9933 0.384579C15.1273 0.188345 15.3274 0.0553954 15.5515 0.0138205C15.7755 -0.0277545 16.0059 0.0253002 16.194 0.161775C17.2979 0.94361 18.362 1.78216 19.4507 2.59235C19.7997 2.85161 19.5493 3.05213 19.4185 3.2486C18.821 4.16007 18.2102 5.07153 17.6033 5.96882C17.2087 6.55823 16.7971 7.22259 16.0043 6.71217C15.1697 6.17542 15.5244 5.46042 15.9171 4.74746C15.5377 4.57326 15.2247 4.80822 14.9402 4.92975C8.59939 7.61958 4.84382 12.5415 3.78354 19.7603C3.66973 20.5401 3.46868 21.2166 2.58669 21.0809C1.7047 20.9452 1.67056 20.1998 1.79005 19.4443C3.11778 11.0811 7.48031 5.45435 15.0009 2.66324C15.1792 2.60248 15.3518 2.53361 15.6477 2.40803Z" fill="#2DA5F3"/>
<path d="M39.1675 16.6495C39.3572 16.4206 39.5127 16.2039 39.6948 16.0236C39.852 15.852 40.0629 15.7483 40.2871 15.7322C40.5114 15.7161 40.7334 15.7889 40.9106 15.9365C41.3222 16.2342 41.5157 16.7285 41.2482 17.172C40.5142 18.3873 39.7157 19.5662 38.9304 20.747C38.6687 21.142 38.4297 20.824 38.2134 20.6619C37.413 20.0543 36.6183 19.4466 35.8216 18.839C35.2431 18.3995 34.5679 17.9458 35.0762 17.0606C35.5845 16.1755 36.2522 16.5158 37.0261 17.1214C36.5657 15.1139 35.7331 13.2254 34.5774 11.5675C31.6829 7.32618 27.8135 4.77206 22.9218 4.04086C22.7966 4.0206 22.6715 3.99629 22.5425 3.97401C21.8824 3.86059 21.4917 3.4798 21.5941 2.73442C21.6889 2.02956 22.1631 1.80675 22.7739 1.87359C24.5048 2.05297 26.2009 2.50765 27.806 3.22256C33.1384 5.62343 36.7713 9.73785 38.7047 15.5658C38.809 15.8838 38.9114 16.2018 39.0177 16.5178C39.0347 16.5441 39.0689 16.5603 39.1675 16.6495Z" fill="#2DA5F3"/>
<path d="M25.5846 41.7709C25.8748 42.02 26.0512 42.1598 26.2125 42.3158C26.6848 42.7715 26.7587 43.3285 26.3699 43.8389C25.9811 44.3493 25.4879 44.3412 25.0118 43.9888C24.0009 43.2434 23.0145 42.4535 21.9941 41.7203C21.5654 41.4124 21.8044 41.1876 21.9808 40.9101C22.5688 40.0324 23.1555 39.1547 23.741 38.277C24.1336 37.6876 24.5282 37.0293 25.3362 37.5012C26.1442 37.9731 25.8692 38.6679 25.4841 39.4862C27.8646 38.7815 30.0593 37.4959 31.8951 35.7309C35.1082 32.6765 37.0258 28.8666 37.5854 24.2971C37.6764 23.5436 37.9344 22.9097 38.7234 23.0211C39.5637 23.1406 39.6851 23.8313 39.5618 24.6414C38.2341 33.1788 33.7464 38.838 26.0361 41.5582C25.9242 41.5988 25.8198 41.6595 25.5846 41.7709Z" fill="#2DA5F3"/>
<path d="M2.27745 27.4266C2.06769 27.6923 1.84147 27.9426 1.60031 28.176C1.43145 28.3345 1.21273 28.4191 0.987971 28.4127C0.76321 28.4063 0.54901 28.3095 0.388284 28.1416C0.00893421 27.7993 -0.133323 27.3314 0.147396 26.8777C0.879542 25.6988 1.6648 24.5565 2.4235 23.3938C2.70232 22.9685 2.91096 23.3047 3.11771 23.4587C4.02246 24.1352 4.91393 24.8319 5.82058 25.5064C6.38961 25.9257 6.68929 26.4422 6.26632 27.1268C5.87559 27.7587 5.32932 27.7041 4.77547 27.3293C4.63303 27.2532 4.48676 27.1856 4.33732 27.1268C5.01075 29.7318 6.24852 32.1311 7.95063 34.1309C10.6708 37.4306 14.4257 39.5561 18.5098 40.1081C19.2477 40.2175 19.8736 40.418 19.7446 41.3679C19.6157 42.3179 18.9214 42.3159 18.2121 42.1943C10.5871 40.896 5.42795 36.3711 2.68335 28.6803C2.55058 28.3158 2.44057 27.9329 2.27745 27.4266Z" fill="#2DA5F3"/>
<path d="M20.7366 15.835C21.5044 15.8402 22.2637 16.0073 22.9709 16.3266C23.6781 16.6459 24.3194 17.1111 24.8579 17.6955C25.3964 18.28 25.8215 18.9722 26.109 19.7325C26.3965 20.4928 26.5406 21.3062 26.5331 22.1261C26.5066 25.541 23.7847 28.4051 20.6209 28.3301C19.0698 28.3008 17.5919 27.6205 16.5071 26.4362C15.4222 25.252 14.8177 23.6592 14.8245 22.0025C14.8329 21.1828 14.9925 20.373 15.2943 19.6192C15.5961 18.8655 16.0341 18.1827 16.5832 17.6099C17.1323 17.037 17.7817 16.5854 18.4944 16.2809C19.2071 15.9763 19.9691 15.8248 20.7366 15.835ZM24.515 22.0491C24.509 21.2398 24.2786 20.4506 23.8528 19.781C23.4271 19.1114 22.8252 18.5916 22.123 18.287C21.4208 17.9825 20.6499 17.907 19.9075 18.0699C19.1651 18.2329 18.4846 18.6271 17.9519 19.2028C17.4192 19.7784 17.0581 20.5097 16.9143 21.3044C16.7705 22.099 16.8504 22.9213 17.1438 23.6675C17.4373 24.4136 17.9312 25.0502 18.5632 25.4969C19.1953 25.9435 19.937 26.1802 20.6949 26.177C21.7139 26.1701 22.6887 25.7314 23.405 24.9574C24.1213 24.1833 24.5205 23.1373 24.515 22.0491Z" fill="#2DA5F3"/>
</svg>
