<svg width="1440" height="809" viewBox="0 0 1440 809" fill="none" xmlns="http://www.w3.org/2000/svg">
<rect x="-35" width="1475" height="809" fill="#27234D"/>
<g filter="url(#filter0_f_1_66)">
<ellipse cx="189.89" cy="550.5" rx="91.1605" ry="91" fill="#543D5D"/>
</g>
<g filter="url(#filter1_f_1_66)">
<ellipse cx="1230.22" cy="526" rx="101.679" ry="101.5" fill="#4E4B3D"/>
</g>
<g filter="url(#filter2_f_1_66)">
<ellipse cx="166.348" cy="264" rx="101.679" ry="101.5" fill="#4E4B3D"/>
</g>
<g filter="url(#filter3_f_1_66)">
<ellipse cx="777.424" cy="171" rx="101.679" ry="101.5" fill="#4E4B3D"/>
</g>
<g filter="url(#filter4_f_1_66)">
<ellipse cx="1101.49" cy="326.5" rx="63.1111" ry="63" fill="#3B4A45"/>
</g>
<rect x="-36" width="1476" height="809" fill="black" fill-opacity="0.72"/>
<g filter="url(#filter5_f_1_66)">
<ellipse cx="598.609" cy="348.5" rx="76.134" ry="76" fill="#453838"/>
</g>
<g opacity="0.131">
<path d="M166.738 153.879C157.316 153.879 147.888 154.92 138.717 156.974C129.657 159.002 120.817 162.025 112.443 165.957C104.069 169.89 96.1415 174.741 88.88 180.377C81.529 186.083 74.8371 192.611 68.9904 199.782L-60.8874 359.057C-69.6969 369.861 -76.4862 381.917 -81.0666 394.891C-85.53 407.533 -87.7931 420.736 -87.7931 434.131C-87.7931 447.527 -85.53 460.729 -81.0668 473.372C-76.4862 486.346 -69.6969 498.402 -60.8874 509.206L68.9902 668.481C74.837 675.651 81.5289 682.18 88.8799 687.885C96.1414 693.521 104.069 698.373 112.443 702.305C120.817 706.238 129.657 709.26 138.717 711.289C147.888 713.343 157.316 714.384 166.738 714.384H503.789C513.211 714.384 522.639 713.343 531.81 711.289C540.87 709.26 549.71 706.238 558.084 702.305C566.458 698.373 574.386 693.521 581.647 687.885C588.998 682.18 595.69 675.651 601.537 668.481L731.414 509.206C740.224 498.402 747.013 486.346 751.594 473.372C756.057 460.729 758.32 447.527 758.32 434.131C758.32 420.736 756.057 407.533 751.594 394.891C747.013 381.917 740.224 369.861 731.414 359.057L601.537 199.782C595.69 192.611 588.998 186.083 581.647 180.377C574.386 174.741 566.458 169.89 558.084 165.957C549.71 162.025 540.87 159.002 531.81 156.974C522.639 154.92 513.211 153.879 503.789 153.879H166.738ZM166.738 152.879H503.789C542.203 152.879 578.507 169.928 602.344 199.161L732.222 358.437C768.393 402.795 768.393 465.468 732.222 509.826L602.345 669.101C578.507 698.335 542.203 715.384 503.789 715.384H166.738C128.324 715.384 92.0204 698.335 68.1824 669.101L-61.6952 509.826C-97.8661 465.468 -97.866 402.795 -61.6952 358.437L68.1826 199.161C92.0205 169.928 128.325 152.879 166.738 152.879Z" fill="white"/>
</g>
<g opacity="0.131">
<path d="M849.549 166.526C840.127 166.526 830.7 167.567 821.528 169.621C812.468 171.649 803.628 174.672 795.255 178.604C786.881 182.537 778.953 187.388 771.691 193.025C764.34 198.73 757.649 205.258 751.802 212.429L621.924 371.704C613.115 382.508 606.325 394.564 601.745 407.538C597.281 420.18 595.018 433.383 595.018 446.778C595.018 460.174 597.281 473.377 601.745 486.019C606.325 498.993 613.115 511.049 621.924 521.853L751.802 681.128C757.648 688.298 764.34 694.827 771.691 700.532C778.953 706.168 786.881 711.02 795.254 714.952C803.628 718.885 812.468 721.907 821.528 723.936C830.7 725.99 840.127 727.031 849.549 727.031H1186.6C1196.02 727.031 1205.45 725.99 1214.62 723.936C1223.68 721.907 1232.52 718.885 1240.9 714.952C1249.27 711.02 1257.2 706.168 1264.46 700.532C1271.81 694.827 1278.5 688.298 1284.35 681.128L1414.23 521.853C1423.04 511.049 1429.82 498.993 1434.41 486.019C1438.87 473.377 1441.13 460.174 1441.13 446.778C1441.13 433.383 1438.87 420.18 1434.41 407.538C1429.82 394.564 1423.04 382.508 1414.23 371.704L1284.35 212.429C1278.5 205.258 1271.81 198.73 1264.46 193.025C1257.2 187.388 1249.27 182.537 1240.9 178.604C1232.52 174.672 1223.68 171.649 1214.62 169.621C1205.45 167.567 1196.02 166.526 1186.6 166.526H849.549ZM849.549 165.526H1186.6C1225.01 165.526 1261.32 182.575 1285.16 211.808L1415.03 371.084C1451.2 415.442 1451.2 478.115 1415.03 522.473L1285.16 681.748C1261.32 710.982 1225.01 728.031 1186.6 728.031H849.549C811.136 728.031 774.832 710.982 750.994 681.748L621.116 522.473C584.945 478.115 584.945 415.442 621.116 371.084L750.994 211.808C774.832 182.575 811.136 165.526 849.549 165.526Z" fill="white"/>
</g>
<g opacity="0.131">
<path d="M1187.48 77.9998C1178.06 77.9998 1168.63 79.0412 1159.46 81.0949C1150.4 83.1235 1141.56 86.1462 1133.18 90.0785C1124.81 94.0109 1116.88 98.8626 1109.62 104.499C1102.27 110.204 1095.58 116.733 1089.73 123.903L959.853 283.178C951.044 293.982 944.255 306.038 939.674 319.012C935.211 331.654 932.948 344.857 932.948 358.253C932.948 371.648 935.211 384.851 939.674 397.493C944.255 410.467 951.044 422.523 959.853 433.327L1089.73 592.602C1095.58 599.772 1102.27 606.301 1109.62 612.006C1116.88 617.642 1124.81 622.494 1133.18 626.426C1141.56 630.359 1150.4 633.381 1159.46 635.41C1168.63 637.464 1178.06 638.505 1187.48 638.505H1524.53C1533.95 638.505 1543.38 637.464 1552.55 635.41C1561.61 633.381 1570.45 630.359 1578.82 626.426C1587.2 622.494 1595.13 617.642 1602.39 612.006C1609.74 606.301 1616.43 599.772 1622.28 592.602L1752.16 433.327C1760.96 422.523 1767.75 410.467 1772.33 397.493C1776.8 384.851 1779.06 371.648 1779.06 358.253C1779.06 344.857 1776.8 331.654 1772.33 319.012C1767.75 306.038 1760.96 293.982 1752.16 283.178L1622.28 123.903C1616.43 116.733 1609.74 110.204 1602.39 104.499C1595.13 98.8626 1587.2 94.0109 1578.82 90.0785C1570.45 86.1462 1561.61 83.1235 1552.55 81.0949C1543.38 79.0412 1533.95 77.9998 1524.53 77.9998H1187.48ZM1187.48 77H1524.53C1562.94 77 1599.25 94.0487 1623.09 123.282L1752.96 282.558C1789.13 326.916 1789.13 389.589 1752.96 433.947L1623.09 593.223C1599.25 622.456 1562.94 639.505 1524.53 639.505H1187.48C1149.07 639.505 1112.76 622.456 1088.92 593.223L959.046 433.947C922.875 389.589 922.875 326.916 959.046 282.558L1088.92 123.282C1112.76 94.0487 1149.07 77 1187.48 77Z" fill="white"/>
</g>
<g style="mix-blend-mode:luminosity">
<path d="M400.852 712.556H352.204V716.771H400.852V712.556Z" fill="url(#paint0_linear_1_66)"/>
<path d="M1036.12 520.538L1004.85 484.371L1001.53 487.081L1032.8 523.248L1036.12 520.538Z" fill="url(#paint1_linear_1_66)"/>
<path d="M1358.97 297.195L1327.7 261.028L1324.37 263.737L1355.64 299.905L1358.97 297.195Z" fill="url(#paint2_linear_1_66)"/>
<path d="M586.466 182.646L616.433 219.85L619.856 217.253L589.889 180.049L586.466 182.646Z" fill="url(#paint3_linear_1_66)"/>
</g>
<defs>
<filter id="filter0_f_1_66" x="-1.2709" y="359.5" width="382.321" height="382" filterUnits="userSpaceOnUse" color-interpolation-filters="sRGB">
<feFlood flood-opacity="0" result="BackgroundImageFix"/>
<feBlend mode="normal" in="SourceGraphic" in2="BackgroundImageFix" result="shape"/>
<feGaussianBlur stdDeviation="50" result="effect1_foregroundBlur_1_66"/>
</filter>
<filter id="filter1_f_1_66" x="1028.54" y="324.5" width="403.358" height="403" filterUnits="userSpaceOnUse" color-interpolation-filters="sRGB">
<feFlood flood-opacity="0" result="BackgroundImageFix"/>
<feBlend mode="normal" in="SourceGraphic" in2="BackgroundImageFix" result="shape"/>
<feGaussianBlur stdDeviation="50" result="effect1_foregroundBlur_1_66"/>
</filter>
<filter id="filter2_f_1_66" x="-35.3309" y="62.5" width="403.358" height="403" filterUnits="userSpaceOnUse" color-interpolation-filters="sRGB">
<feFlood flood-opacity="0" result="BackgroundImageFix"/>
<feBlend mode="normal" in="SourceGraphic" in2="BackgroundImageFix" result="shape"/>
<feGaussianBlur stdDeviation="50" result="effect1_foregroundBlur_1_66"/>
</filter>
<filter id="filter3_f_1_66" x="575.745" y="-30.5" width="403.358" height="403" filterUnits="userSpaceOnUse" color-interpolation-filters="sRGB">
<feFlood flood-opacity="0" result="BackgroundImageFix"/>
<feBlend mode="normal" in="SourceGraphic" in2="BackgroundImageFix" result="shape"/>
<feGaussianBlur stdDeviation="50" result="effect1_foregroundBlur_1_66"/>
</filter>
<filter id="filter4_f_1_66" x="938.383" y="163.5" width="326.222" height="326" filterUnits="userSpaceOnUse" color-interpolation-filters="sRGB">
<feFlood flood-opacity="0" result="BackgroundImageFix"/>
<feBlend mode="normal" in="SourceGraphic" in2="BackgroundImageFix" result="shape"/>
<feGaussianBlur stdDeviation="50" result="effect1_foregroundBlur_1_66"/>
</filter>
<filter id="filter5_f_1_66" x="422.475" y="172.5" width="352.268" height="352" filterUnits="userSpaceOnUse" color-interpolation-filters="sRGB">
<feFlood flood-opacity="0" result="BackgroundImageFix"/>
<feBlend mode="normal" in="SourceGraphic" in2="BackgroundImageFix" result="shape"/>
<feGaussianBlur stdDeviation="50" result="effect1_foregroundBlur_1_66"/>
</filter>
<linearGradient id="paint0_linear_1_66" x1="398.614" y1="714.663" x2="352.204" y2="714.663" gradientUnits="userSpaceOnUse">
<stop stop-color="#268AFF"/>
<stop offset="1" stop-color="#134580" stop-opacity="0"/>
</linearGradient>
<linearGradient id="paint1_linear_1_66" x1="1004.63" y1="487.39" x2="1033.42" y2="522.742" gradientUnits="userSpaceOnUse">
<stop stop-color="#FF2626"/>
<stop offset="1" stop-color="#134580" stop-opacity="0"/>
</linearGradient>
<linearGradient id="paint2_linear_1_66" x1="1327.48" y1="264.046" x2="1356.27" y2="299.399" gradientUnits="userSpaceOnUse">
<stop stop-color="#26FF71"/>
<stop offset="1" stop-color="#134580" stop-opacity="0"/>
</linearGradient>
<linearGradient id="paint3_linear_1_66" x1="616.766" y1="216.84" x2="589.232" y2="180.547" gradientUnits="userSpaceOnUse">
<stop stop-color="#C526FF"/>
<stop offset="1" stop-color="#134580" stop-opacity="0"/>
</linearGradient>
</defs>
</svg>
