<svg width="21" height="21" viewBox="0 0 21 21" fill="none" xmlns="http://www.w3.org/2000/svg">
<path fill-rule="evenodd" clip-rule="evenodd" d="M9.8559 2.28809H12.9383C14.6045 2.28809 15.9552 3.6388 15.9552 5.30499C15.9552 6.97118 14.6045 8.32189 12.9383 8.32189H9.8559V2.28809ZM10.8441 3.2763V7.33368H12.9383C14.0587 7.33368 14.967 6.4254 14.967 5.30499C14.967 4.18458 14.0587 3.2763 12.9383 3.2763H10.8441Z" fill="#29ABE2"/>
<path fill-rule="evenodd" clip-rule="evenodd" d="M4.74469 5.30499C4.74469 3.6388 6.0954 2.28809 7.7616 2.28809H10.844V8.32189H7.7616C6.0954 8.32189 4.74469 6.97118 4.74469 5.30499ZM7.7616 3.2763C6.64118 3.2763 5.73291 4.18458 5.73291 5.30499C5.73291 6.4254 6.64118 7.33368 7.7616 7.33368H9.85581V3.2763H7.7616Z" fill="#29ABE2"/>
<path fill-rule="evenodd" clip-rule="evenodd" d="M4.74469 10.3504C4.74469 8.6842 6.0954 7.3335 7.7616 7.3335H10.844V13.3673H7.7616C6.0954 13.3673 4.74469 12.0166 4.74469 10.3504ZM7.7616 8.32171C6.64118 8.32171 5.73291 9.22998 5.73291 10.3504C5.73291 11.4708 6.64118 12.3791 7.7616 12.3791H9.85581V8.32171H7.7616Z" fill="#29ABE2"/>
<path fill-rule="evenodd" clip-rule="evenodd" d="M4.74469 15.3968C4.74469 13.7306 6.0954 12.3799 7.7616 12.3799H10.844V15.364C10.844 17.0524 9.45802 18.4137 7.77787 18.4137C6.11582 18.4137 4.74469 17.0671 4.74469 15.3968ZM7.7616 13.3681C6.64118 13.3681 5.73291 14.2764 5.73291 15.3968C5.73291 16.5131 6.65331 17.4255 7.77787 17.4255C8.92053 17.4255 9.85581 16.4984 9.85581 15.364V13.3681H7.7616Z" fill="#29ABE2"/>
<path fill-rule="evenodd" clip-rule="evenodd" d="M9.8559 10.3504C9.8559 8.6842 11.2066 7.3335 12.8728 7.3335H12.9383C14.6045 7.3335 15.9552 8.6842 15.9552 10.3504C15.9552 12.0166 14.6045 13.3673 12.9383 13.3673H12.8728C11.2066 13.3673 9.8559 12.0166 9.8559 10.3504ZM12.8728 8.32171C11.7524 8.32171 10.8441 9.22998 10.8441 10.3504C10.8441 11.4708 11.7524 12.3791 12.8728 12.3791H12.9383C14.0587 12.3791 14.967 11.4708 14.967 10.3504C14.967 9.22998 14.0587 8.32171 12.9383 8.32171H12.8728Z" fill="#29ABE2"/>
</svg>
