<svg width="21" height="21" viewBox="0 0 21 21" fill="none" xmlns="http://www.w3.org/2000/svg">
<path d="M7.10499 5.03218C7.54069 5.02409 7.97577 5.06876 8.40074 5.16521C8.75854 5.24333 9.09825 5.3887 9.40181 5.59358C9.68217 5.79732 9.904 6.07122 10.045 6.38779C10.2071 6.77707 10.2853 7.19615 10.2745 7.61769C10.2929 8.08054 10.1747 8.53858 9.93461 8.93472C9.68203 9.30886 9.33289 9.60766 8.92422 9.79943C9.47881 9.94895 9.96185 10.2914 10.2865 10.7653C10.5981 11.2673 10.7548 11.8502 10.7368 12.4408C10.7471 12.9117 10.6497 13.3788 10.4521 13.8064C10.2695 14.1794 10.002 14.5045 9.67121 14.7556C9.33061 15.0039 8.94734 15.1877 8.54042 15.2977C8.11844 15.4144 7.68251 15.4731 7.24468 15.472H2.43752V5.03218H7.10499ZM6.82762 9.25466C7.16995 9.26877 7.50694 9.16629 7.78346 8.96398C7.91589 8.84609 8.01891 8.69885 8.08428 8.53404C8.14965 8.36923 8.17556 8.19141 8.15995 8.01479C8.16881 7.80851 8.12774 7.60314 8.04022 7.41614C7.96598 7.26725 7.85054 7.14281 7.70763 7.05761C7.56289 6.96384 7.40027 6.9011 7.23004 6.87336C7.04535 6.83758 6.85741 6.82131 6.66931 6.82481H4.61527V9.26397H6.82762V9.25466ZM6.94735 13.6993C7.15438 13.7021 7.36098 13.6798 7.56263 13.6328C7.7469 13.5921 7.92167 13.5165 8.07747 13.41C8.23009 13.3035 8.35341 13.1603 8.43599 12.9936C8.53175 12.781 8.57574 12.5487 8.56437 12.3158C8.58513 12.1035 8.55702 11.8893 8.48219 11.6896C8.40736 11.4899 8.2878 11.31 8.13268 11.1637C7.80388 10.9215 7.40095 10.8016 6.99324 10.8245H4.61527V13.6993H6.94735Z" fill="#29ABE2"/>
<path d="M13.8385 13.6602C14.0094 13.8187 14.2107 13.9407 14.4303 14.0189C14.6498 14.0971 14.883 14.1299 15.1156 14.1152C15.4843 14.1245 15.8459 14.0123 16.1446 13.7959C16.3876 13.6379 16.5716 13.4041 16.6681 13.1308H18.4048C18.2198 13.9089 17.7679 14.5976 17.1277 15.077C16.5136 15.4847 15.7878 15.6911 15.0511 15.6677C14.5252 15.6746 14.0034 15.5757 13.5165 15.377C13.0761 15.1934 12.6811 14.9157 12.3591 14.5635C12.0384 14.1945 11.7919 13.7669 11.6334 13.3044C11.4555 12.7873 11.3684 12.2434 11.376 11.6967C11.3728 11.1591 11.4628 10.625 11.6421 10.1182C11.8829 9.40523 12.3435 8.78688 12.9576 8.35189C13.5717 7.9169 14.3079 7.68764 15.0604 7.697C15.6159 7.68539 16.1653 7.81541 16.6568 8.07482C17.101 8.3184 17.4842 8.65954 17.7776 9.07257C18.0777 9.50596 18.2928 9.99238 18.4115 10.506C18.5416 11.0575 18.5881 11.6255 18.5492 12.1909H13.3762C13.3343 12.722 13.5 13.2488 13.8385 13.6602ZM16.108 9.68984C15.9633 9.54505 15.7891 9.43296 15.5974 9.36114C15.4057 9.28931 15.2008 9.25941 14.9965 9.27345C14.7255 9.26311 14.4565 9.32316 14.2156 9.44772C14.0246 9.55285 13.8561 9.6943 13.7194 9.86412C13.5983 10.0233 13.508 10.2038 13.4533 10.3963C13.404 10.5567 13.3732 10.7223 13.3615 10.8898H16.5656C16.5377 10.4532 16.3787 10.0352 16.1093 9.69051L16.108 9.68984Z" fill="#29ABE2"/>
<path d="M16.9634 5.729H12.9485V6.75536H16.9634V5.729Z" fill="#29ABE2"/>
</svg>
