<svg width="21" height="21" viewBox="0 0 21 21" fill="none" xmlns="http://www.w3.org/2000/svg">
<path fill-rule="evenodd" clip-rule="evenodd" d="M10.65 3.09424C8.67918 3.09424 8.43247 3.10246 7.65847 3.13778C6.88592 3.17309 6.35815 3.29596 5.89665 3.47543C5.4129 3.65732 4.97414 3.94274 4.61133 4.31232C4.24233 4.67471 3.95675 5.11317 3.77444 5.59716C3.59594 6.05866 3.47258 6.58691 3.43727 7.35946C3.40244 8.13298 3.39373 8.37921 3.39373 10.3505C3.39373 12.3218 3.40195 12.568 3.43727 13.342C3.47258 14.1145 3.59545 14.6423 3.77493 15.1038C3.95682 15.5876 4.24223 16.0263 4.61181 16.3891C4.97422 16.7581 5.41267 17.0437 5.89665 17.226C6.35815 17.405 6.88592 17.5279 7.65847 17.5632C8.43247 17.5985 8.67918 17.6067 10.65 17.6067C12.6208 17.6067 12.8675 17.5985 13.6415 17.5632C14.414 17.5279 14.9418 17.405 15.4033 17.2255C15.8871 17.0437 16.3258 16.7582 16.6886 16.3887C17.0576 16.0263 17.3432 15.5878 17.5255 15.1038C17.7045 14.6423 17.8274 14.1145 17.8627 13.342C17.898 12.568 17.9062 12.3213 17.9062 10.3505C17.9062 8.37969 17.898 8.13298 17.8627 7.35898C17.8274 6.58643 17.7045 6.05866 17.525 5.59716C17.3429 5.11296 17.0573 4.67432 16.6881 4.31184C16.3258 3.94284 15.8873 3.65725 15.4033 3.47495C14.9418 3.29645 14.4136 3.17309 13.641 3.13778C12.8675 3.10295 12.6213 3.09424 10.65 3.09424ZM10.65 4.40181C12.5874 4.40181 12.8172 4.40907 13.5825 4.4439C14.2897 4.47631 14.6738 4.59386 14.9297 4.694C15.2683 4.8251 15.5102 4.9828 15.7642 5.23628C16.0182 5.49025 16.1754 5.73213 16.3065 6.07075C16.4061 6.32666 16.5242 6.71075 16.5566 7.418C16.5914 8.18329 16.5987 8.41307 16.5987 10.3505C16.5987 12.2879 16.5914 12.5177 16.5566 13.283C16.5242 13.9902 16.4066 14.3743 16.3065 14.6302C16.1903 14.9454 16.005 15.2306 15.7642 15.4647C15.5301 15.7056 15.2449 15.8909 14.9297 16.007C14.6738 16.1066 14.2897 16.2247 13.5825 16.2571C12.8172 16.2919 12.5879 16.2992 10.65 16.2992C8.71208 16.2992 8.48278 16.2919 7.71749 16.2571C7.01024 16.2247 6.62615 16.1071 6.37024 16.007C6.05506 15.8908 5.76991 15.7055 5.53578 15.4647C5.29495 15.2305 5.10965 14.9454 4.99349 14.6302C4.89384 14.3743 4.7758 13.9902 4.74339 13.283C4.70856 12.5177 4.70131 12.2879 4.70131 10.3505C4.70131 8.41307 4.70856 8.18329 4.74339 7.418C4.7758 6.71075 4.89336 6.32666 4.99349 6.07075C5.12459 5.73213 5.28229 5.49025 5.53578 5.23628C5.76988 4.9954 6.05504 4.81009 6.37024 4.694C6.62615 4.59435 7.01024 4.47631 7.71749 4.4439C8.48278 4.40907 8.71256 4.40181 10.65 4.40181Z" fill="#29ABE2"/>
<path fill-rule="evenodd" clip-rule="evenodd" d="M10.65 12.7716C10.332 12.7716 10.0172 12.709 9.72345 12.5873C9.4297 12.4657 9.16279 12.2873 8.93797 12.0625C8.71314 11.8377 8.5348 11.5707 8.41312 11.277C8.29145 10.9833 8.22882 10.6684 8.22882 10.3505C8.22882 10.0325 8.29145 9.71767 8.41312 9.42392C8.5348 9.13017 8.71314 8.86326 8.93797 8.63843C9.16279 8.41361 9.4297 8.23527 9.72345 8.11359C10.0172 7.99192 10.332 7.92929 10.65 7.92929C11.2921 7.92929 11.908 8.18438 12.362 8.63843C12.8161 9.09249 13.0712 9.70832 13.0712 10.3505C13.0712 10.9926 12.8161 11.6084 12.362 12.0625C11.908 12.5165 11.2921 12.7716 10.65 12.7716ZM10.65 6.62075C9.66081 6.62075 8.71214 7.0137 8.01269 7.71315C7.31323 8.41261 6.92028 9.36128 6.92028 10.3505C6.92028 11.3396 7.31323 12.2883 8.01269 12.9878C8.71214 13.6872 9.66081 14.0802 10.65 14.0802C11.6392 14.0802 12.5878 13.6872 13.2873 12.9878C13.9868 12.2883 14.3797 11.3396 14.3797 10.3505C14.3797 9.36128 13.9868 8.41261 13.2873 7.71315C12.5878 7.0137 11.6392 6.62075 10.65 6.62075ZM15.4648 6.55302C15.4648 6.78685 15.3719 7.01109 15.2065 7.17643C15.0412 7.34177 14.8169 7.43466 14.5831 7.43466C14.3493 7.43466 14.125 7.34177 13.9597 7.17643C13.7944 7.01109 13.7015 6.78685 13.7015 6.55302C13.7015 6.3192 13.7944 6.09495 13.9597 5.92961C14.125 5.76427 14.3493 5.67139 14.5831 5.67139C14.8169 5.67139 15.0412 5.76427 15.2065 5.92961C15.3719 6.09495 15.4648 6.3192 15.4648 6.55302Z" fill="#29ABE2"/>
</svg>
