<svg width="28" height="28" viewBox="0 0 28 28" fill="none" xmlns="http://www.w3.org/2000/svg">
<path d="M1.755 1.75C27.8738 1.75 21.8034 19.1023 21.8308 21.782L26.255 26.25H24.8331L20.9831 22.3562C18.8503 22.5859 14.18 24.243 9.25813 20.3328C4.32532 16.4227 4.59875 11.7414 1.755 1.75ZM6.1136 4.26562C3.39563 2.98047 5.82922 4.76875 5.82922 4.76875C8.3011 6.475 9.4386 8.79922 10.762 11.3258C12.4847 14.618 15.0823 18.9656 18.648 20.4969C22.2027 22.0281 20.5183 21.1805 18.9761 20.032C17.4339 18.8727 15.2464 15.2742 13.9995 12.9117C12.2659 9.63047 10.6636 6.42578 6.1136 4.26562Z" fill="white"/>
</svg>
