<svg width="32" height="32" viewBox="0 0 32 32" fill="none" xmlns="http://www.w3.org/2000/svg">
<path d="M25.3333 10.6667C26.0406 10.6667 26.7188 10.9476 27.2189 11.4477C27.719 11.9478 28 12.6261 28 13.3333V22.3467C28.8133 23.08 29.3333 24.1467 29.3333 25.3333C29.3333 27.5467 27.5467 29.3333 25.3333 29.3333C23.12 29.3333 21.3333 27.5467 21.3333 25.3333C21.3333 24.1467 21.8533 23.08 22.6667 22.3467V13.3333C22.6667 11.8667 23.8667 10.6667 25.3333 10.6667ZM25.3333 12C24.6 12 24 12.6 24 13.3333V14.6667H26.6667V13.3333C26.6667 12.6 26.0667 12 25.3333 12ZM16 7.58667L9.33332 13.5867V24H18.8L18.6667 25.3333L18.8 26.6667H6.66666V16H2.66666L16 4L21.8667 9.28C21.1867 9.86667 20.6667 10.6267 20.3333 11.48L16 7.58667Z" fill="white"/>
</svg>
