<svg width="21" height="20" viewBox="0 0 21 20" fill="none" xmlns="http://www.w3.org/2000/svg">
<path fill-rule="evenodd" clip-rule="evenodd" d="M5.34 7.20999C5.48326 7.07216 5.67538 6.99685 5.87414 7.0006C6.0729 7.00435 6.26205 7.08686 6.4 7.22999L10.11 11.168L13.82 7.22999C13.8874 7.15565 13.9691 7.0956 14.0602 7.0534C14.1513 7.01119 14.2499 6.9877 14.3502 6.98431C14.4505 6.98093 14.5505 6.99771 14.6442 7.03366C14.7379 7.06962 14.8234 7.12402 14.8957 7.19365C14.968 7.26327 15.0256 7.3467 15.0651 7.43899C15.1046 7.53127 15.1251 7.63055 15.1255 7.73092C15.1259 7.83129 15.1061 7.93072 15.0674 8.02332C15.0287 8.11592 14.9718 8.1998 14.9 8.26999L10.65 12.77C10.58 12.8426 10.4962 12.9003 10.4034 12.9398C10.3106 12.9792 10.2108 12.9995 10.11 12.9995C10.0092 12.9995 9.90941 12.9792 9.81663 12.9398C9.72384 12.9003 9.63997 12.8426 9.57 12.77L5.32 8.26999C5.18217 8.12674 5.10686 7.93462 5.11061 7.73585C5.11436 7.53709 5.19687 7.34795 5.34 7.20999Z" fill="white"/>
</svg>
